<svg width="238" height="37" viewBox="0 0 238 37" fill="none" xmlns="http://www.w3.org/2000/svg">
<g clip-path="url(#clip0_1_129)">
<path d="M59.0476 35.1642C56.9215 34.2414 54.9877 32.9285 53.3466 31.2934C51.7056 29.6548 50.386 27.7242 49.4558 25.6011C48.5125 23.3772 48.0277 20.9863 48.0305 18.5711C48.0277 16.1606 48.5125 13.7743 49.4558 11.5554C50.3842 9.43134 51.704 7.50041 53.3466 5.86306C54.9802 4.22266 56.9161 2.91308 59.0476 2.00649C61.2681 1.05893 63.6591 0.574659 66.0739 0.583415C68.4888 0.57305 70.8803 1.05739 73.1004 2.00649C75.2293 2.91776 77.1643 4.22677 78.8013 5.86306C80.4369 7.49725 81.7431 9.42962 82.6494 11.5554C83.5984 13.7725 84.0834 16.16 84.0746 18.5711C84.0837 20.9869 83.5987 23.3791 82.6494 25.6011C81.7397 27.725 80.4339 29.6568 78.8013 31.2934C77.1575 32.9251 75.2244 34.2376 73.1004 35.1642C70.8784 36.1072 68.4882 36.5913 66.0739 36.5873C63.6597 36.5901 61.2699 36.1061 59.0476 35.1642Z" fill="white"/>
<path d="M119.435 19.9089C121.983 19.8876 124.42 18.8651 126.219 17.0627C127.153 16.1618 127.889 15.0765 128.38 13.8759C128.87 12.6754 129.105 11.3859 129.069 10.0896C129.077 7.47254 128.053 4.95745 126.219 3.08809C125.344 2.15585 124.293 1.40654 123.126 0.883724C121.959 0.360906 120.699 0.0750353 119.421 0.0427246H106.465C106.223 0.0427246 106.964 0.697303 106.964 0.939227V36.26C106.964 36.5019 106.223 37.0427 106.465 37.0427H127.986C128.114 37.0427 128.214 36.7723 128.285 36.6585C128.32 36.5902 128.339 36.5146 128.339 36.4379C128.339 36.3612 128.32 36.2856 128.285 36.2173L119.435 19.9089Z" fill="white"/>
<path d="M161.037 35.1642C158.913 34.2387 156.979 32.9261 155.336 31.2934C153.695 29.6548 152.376 27.7241 151.446 25.6011C150.502 23.3772 150.017 20.9862 150.02 18.5711C150.017 16.1605 150.502 13.7743 151.446 11.5553C152.374 9.43131 153.694 7.50037 155.336 5.86302C156.972 4.22565 158.908 2.91649 161.037 2.00645C163.258 1.0589 165.649 0.574622 168.064 0.583378C170.483 0.574284 172.879 1.05853 175.104 2.00645C177.234 2.91649 179.169 4.22565 180.805 5.86302C182.446 7.49333 183.753 9.42667 184.654 11.5553C185.61 13.7703 186.095 16.1592 186.079 18.5711C186.095 20.9875 185.61 23.3811 184.654 25.6011C183.749 27.7279 182.443 29.6606 180.805 31.2934C179.162 32.9261 177.229 34.2387 175.104 35.1642C172.877 36.106 170.483 36.59 168.064 36.5872C165.65 36.5901 163.26 36.106 161.037 35.1642Z" fill="white"/>
<path d="M14.7085 36.7439H0V0.782715H14.6657C21.6066 0.782715 26.1816 4.625 26.1816 10.2319C26.1717 11.8767 25.6863 13.4836 24.7836 14.8594C23.881 16.2353 22.5997 17.3216 21.0935 17.9877C22.9126 18.612 24.4955 19.7797 25.6274 21.3326C26.7594 22.8854 27.3856 24.7482 27.4215 26.6685C27.4215 32.6739 22.3763 36.7439 14.7085 36.7439Z" fill="white"/>
<path d="M9.22119 30.1978H13.2405C16.0909 30.1978 17.73 28.6181 17.73 26.5262C17.73 24.4343 16.0054 22.8547 13.4543 22.8547H9.47781V9.77661H13.5254" stroke="black" stroke-width="0.25" stroke-miterlimit="10"/>
<path d="M237.06 10.3884C236.402 8.40348 235.295 6.59677 233.824 5.10879C232.359 3.60037 230.571 2.44249 228.594 1.72186C227.071 1.15211 225.459 0.85812 223.833 0.85376C222.189 0.858307 220.558 1.15218 219.016 1.72186C217.026 2.44164 215.224 3.5992 213.743 5.10879C212.272 6.59677 211.165 8.40348 210.507 10.3884C209.082 14.5153 209.652 19.0122 209.652 23.2957V35.5769C209.652 35.8046 209.652 36.4164 209.852 36.5588C210.051 36.7011 210.179 36.9999 210.35 36.9999H237.259C237.43 36.9999 237.601 36.6726 237.744 36.5588C237.886 36.4449 237.929 35.9753 237.929 35.7334C237.929 31.6492 237.929 27.4653 237.929 23.3811C237.929 19.2969 238.413 14.5153 237.06 10.3884Z" fill="white"/>
</g>
<defs>
<clipPath id="clip0_1_129">
<rect width="238" height="37" fill="white"/>
</clipPath>
</defs>
</svg>
