<svg width="29" height="22" viewBox="0 0 29 22" fill="none" xmlns="http://www.w3.org/2000/svg">
<path fill-rule="evenodd" clip-rule="evenodd" d="M9.10967 21.3935C20.0529 21.3935 26.0409 13.1604 26.0409 6.03271C26.0409 5.80108 26.0409 5.56944 26.0293 5.33781C27.1897 4.57978 28.1993 3.62176 29.0001 2.53734C27.9324 2.969 26.7836 3.25322 25.5767 3.39009C26.8068 2.7268 27.7468 1.66348 28.1993 0.400083C27.0505 1.02125 25.774 1.46346 24.4162 1.70561C23.3254 0.652776 21.782 0 20.0761 0C16.7919 0 14.1229 2.42156 14.1229 5.40107C14.1229 5.8222 14.1809 6.2327 14.2737 6.63277C9.33016 6.41168 4.94359 4.25348 2.0076 0.989704C1.497 1.78985 1.20688 2.71624 1.20688 3.70591C1.20688 5.57994 2.26292 7.23293 3.85276 8.20154C2.87797 8.16995 1.96119 7.92784 1.16046 7.52777C1.16046 7.54882 1.16046 7.56989 1.16046 7.60147C1.16046 10.2125 3.21448 12.4023 5.92998 12.8971C5.43098 13.0235 4.90877 13.0867 4.36335 13.0867C3.9804 13.0867 3.60905 13.0551 3.24931 12.992C4.00361 15.1397 6.2085 16.6979 8.80794 16.74C6.76552 18.1929 4.2009 19.0562 1.41577 19.0562C0.939983 19.0562 0.464187 19.0352 0 18.9825C2.62266 20.4986 5.75592 21.3935 9.10967 21.3935Z" fill="#77D7DB"/>
</svg>
